G04 #@! TF.FileFunction,Copper,L1,Top,Signal*
%FSLAX46Y46*%
G04 Gerber Fmt 4.6, Leading zero omitted, Abs format (unit mm)*
G04 Created by KiCad (PCBNEW (2015-03-04 BZR 5478)-product) date Tue 24 Mar 2015 16:15:30 GMT*
%MOMM*%
G01*
G04 APERTURE LIST*
%ADD10C,0.150000*%
%ADD11R,0.550000X1.500000*%
%ADD12R,1.600000X2.000000*%
%ADD13R,2.000000X1.600000*%
%ADD14O,2.000000X1.778000*%
%ADD15R,2.300000X0.900000*%
%ADD16C,1.600000*%
%ADD17C,10.000000*%
%ADD18R,2.197100X2.197100*%
%ADD19R,0.400000X2.197100*%
%ADD20R,2.000000X0.600000*%
%ADD21R,5.500000X6.300000*%
%ADD22R,1.300000X2.200000*%
%ADD23C,0.889000*%
%ADD24C,0.900000*%
%ADD25C,0.500000*%
%ADD26C,1.000000*%
%ADD27C,0.400000*%
%ADD28C,2.000000*%
G04 APERTURE END LIST*
D10*
D11*
X47334000Y43230000D03*
X48284000Y43230000D03*
X49234000Y43230000D03*
X49234000Y46530000D03*
X48284000Y46530000D03*
X47334000Y46530000D03*
D12*
X56388000Y23290000D03*
X56388000Y19890000D03*
X68326000Y23290000D03*
X68326000Y19890000D03*
D13*
X38984000Y47032000D03*
X35584000Y47032000D03*
X35584000Y32032000D03*
X38984000Y32032000D03*
X38984000Y17032000D03*
X35584000Y17032000D03*
X20584000Y32032000D03*
X23984000Y32032000D03*
X23984000Y47032000D03*
X20584000Y47032000D03*
X5584000Y32032000D03*
X8984000Y32032000D03*
X23984000Y17032000D03*
X20584000Y17032000D03*
X8984000Y47032000D03*
X5584000Y47032000D03*
X8984000Y17032000D03*
X5584000Y17032000D03*
X76907000Y53330000D03*
X80307000Y53330000D03*
D14*
X52197000Y2540000D03*
X52197000Y5080000D03*
X52197000Y7620000D03*
X52197000Y10160000D03*
X52197000Y12700000D03*
X52197000Y15240000D03*
X52197000Y17780000D03*
X52197000Y20320000D03*
X52197000Y22860000D03*
X52197000Y25400000D03*
X52197000Y27940000D03*
X52197000Y30480000D03*
X52197000Y33020000D03*
X52197000Y35560000D03*
X52197000Y38100000D03*
X52197000Y40640000D03*
X52197000Y43180000D03*
X52197000Y45720000D03*
X52197000Y48260000D03*
X52197000Y50800000D03*
X52197000Y53340000D03*
X52197000Y55880000D03*
X72517000Y2540000D03*
X72517000Y5080000D03*
X72517000Y7620000D03*
X72517000Y10160000D03*
X72517000Y12700000D03*
X72517000Y15240000D03*
X72517000Y17780000D03*
X72517000Y20320000D03*
X72517000Y22860000D03*
X72517000Y25400000D03*
X72517000Y27940000D03*
X72517000Y30480000D03*
X72517000Y33020000D03*
X72517000Y35560000D03*
X72517000Y38100000D03*
X72517000Y40640000D03*
X72517000Y43180000D03*
X72517000Y45720000D03*
X72517000Y48260000D03*
X72517000Y50800000D03*
X72517000Y53340000D03*
X72517000Y55880000D03*
D15*
X34434000Y53682000D03*
X34434000Y50382000D03*
X40134000Y53682000D03*
X40134000Y50382000D03*
X40134000Y35382000D03*
X40134000Y38682000D03*
X34434000Y35382000D03*
X34434000Y38682000D03*
X34434000Y23682000D03*
X34434000Y20382000D03*
X40134000Y23682000D03*
X40134000Y20382000D03*
X19434000Y53682000D03*
X19434000Y50382000D03*
X25134000Y53682000D03*
X25134000Y50382000D03*
X25134000Y35382000D03*
X25134000Y38682000D03*
X19434000Y35382000D03*
X19434000Y38682000D03*
X19434000Y23682000D03*
X19434000Y20382000D03*
X25134000Y23682000D03*
X25134000Y20382000D03*
X4434000Y53682000D03*
X4434000Y50382000D03*
X10134000Y53682000D03*
X10134000Y50382000D03*
X10134000Y35382000D03*
X10134000Y38682000D03*
X4434000Y35382000D03*
X4434000Y38682000D03*
X4434000Y23682000D03*
X4434000Y20382000D03*
X10134000Y23682000D03*
X10134000Y20382000D03*
D16*
X78277000Y56540000D03*
X78277000Y59080000D03*
X80817000Y56540000D03*
X80817000Y59080000D03*
X83357000Y56540000D03*
X83357000Y59080000D03*
X85897000Y56540000D03*
X85897000Y59080000D03*
D17*
X85344000Y43942000D03*
X85344000Y31242000D03*
X85344000Y18542000D03*
X85344000Y5842000D03*
D18*
X66786760Y8953500D03*
D19*
X60759340Y9232900D03*
X61559440Y9232900D03*
X62357000Y9232900D03*
X63154560Y9232900D03*
X63954660Y9232900D03*
D18*
X57927240Y8953500D03*
X57927240Y3454400D03*
X66786760Y3454400D03*
D12*
X48534000Y55732000D03*
X48534000Y52332000D03*
X68072000Y59358000D03*
X68072000Y55958000D03*
D13*
X64057000Y36068000D03*
X60657000Y36068000D03*
X64057000Y39306500D03*
X60657000Y39306500D03*
D20*
X59432000Y32385000D03*
X59432000Y31115000D03*
X59432000Y29845000D03*
X59432000Y28575000D03*
X65282000Y28575000D03*
X65282000Y29845000D03*
X65282000Y31115000D03*
X65282000Y32385000D03*
D21*
X62357000Y16469000D03*
D22*
X64642000Y23459000D03*
X60072000Y23459000D03*
D23*
X56034000Y15532000D03*
X47934000Y16632000D03*
D24*
X34434000Y23682000D02*
X35134000Y23682000D01*
X35134000Y23682000D02*
X36784000Y22032000D01*
X36784000Y22032000D02*
X36784000Y18032000D01*
X36784000Y18032000D02*
X35784000Y17032000D01*
X35784000Y17032000D02*
X35584000Y17032000D01*
X34775633Y29532000D02*
X38184000Y29532000D01*
X24958675Y29532000D02*
X34775633Y29532000D01*
X34775633Y29532000D02*
X34434000Y29190367D01*
X34434000Y29190367D02*
X34434000Y23682000D01*
X38184000Y29532000D02*
X38984000Y30332000D01*
X38984000Y30332000D02*
X38984000Y32032000D01*
X40134000Y35382000D02*
X40134000Y33182000D01*
X40134000Y33182000D02*
X38984000Y32032000D01*
D25*
X47334000Y46530000D02*
X47334000Y48232000D01*
X47334000Y48232000D02*
X43747988Y51818012D01*
X43747988Y51818012D02*
X36934000Y51818012D01*
D26*
X59941000Y23290000D02*
X60072000Y23159000D01*
X56388000Y23290000D02*
X59941000Y23290000D01*
D24*
X56388000Y23090000D02*
X54047010Y20749010D01*
X56388000Y23290000D02*
X56388000Y23090000D01*
X25134000Y29707325D02*
X24958675Y29532000D01*
X10134000Y29534542D02*
X10136542Y29532000D01*
X4434000Y29499621D02*
X4466379Y29532000D01*
X4434000Y23682000D02*
X4434000Y29499621D01*
X4466379Y29532000D02*
X10136542Y29532000D01*
X18560553Y29532000D02*
X24958675Y29532000D01*
X10136542Y29532000D02*
X18560553Y29532000D01*
X19434000Y29532000D02*
X18560553Y29532000D01*
X19434000Y23682000D02*
X19434000Y29532000D01*
X32384000Y53682000D02*
X34434000Y53682000D01*
X30134000Y55932000D02*
X32384000Y53682000D01*
X4434000Y55842567D02*
X4434000Y53682000D01*
X4523433Y55932000D02*
X4434000Y55842567D01*
X18434874Y55932000D02*
X30134000Y55932000D01*
X4523433Y55932000D02*
X18434874Y55932000D01*
X19434000Y55932000D02*
X18434874Y55932000D01*
X19434000Y53682000D02*
X19434000Y55932000D01*
X23984000Y32032000D02*
X25121216Y32032000D01*
X25121216Y32032000D02*
X25134000Y32044784D01*
X25134000Y32044784D02*
X25134000Y29707325D01*
X25134000Y35382000D02*
X25134000Y32044784D01*
X9945026Y32032000D02*
X10134000Y31843026D01*
X10134000Y31843026D02*
X10134000Y29534542D01*
X8984000Y32032000D02*
X9945026Y32032000D01*
X10134000Y35382000D02*
X10134000Y31843026D01*
X20784000Y47032000D02*
X20584000Y47032000D01*
X21834000Y48082000D02*
X20784000Y47032000D01*
X21834000Y51982000D02*
X21834000Y48082000D01*
X20134000Y53682000D02*
X21834000Y51982000D01*
X19434000Y53682000D02*
X20134000Y53682000D01*
X5134000Y53682000D02*
X4434000Y53682000D01*
X6834000Y51982000D02*
X5134000Y53682000D01*
X6834000Y48082000D02*
X6834000Y51982000D01*
X5784000Y47032000D02*
X6834000Y48082000D01*
X5584000Y47032000D02*
X5784000Y47032000D01*
X35784000Y47032000D02*
X35584000Y47032000D01*
X36934000Y48182000D02*
X35784000Y47032000D01*
X36484000Y53682000D02*
X36934000Y53232000D01*
X34434000Y53682000D02*
X36484000Y53682000D01*
X5784000Y17032000D02*
X5584000Y17032000D01*
X6784000Y18032000D02*
X5784000Y17032000D01*
X6784000Y21982000D02*
X6784000Y18032000D01*
X5084000Y23682000D02*
X6784000Y21982000D01*
X4434000Y23682000D02*
X5084000Y23682000D01*
X20784000Y17032000D02*
X20584000Y17032000D01*
X21834000Y18082000D02*
X20784000Y17032000D01*
X21834000Y21982000D02*
X21834000Y18082000D01*
X20134000Y23682000D02*
X21834000Y21982000D01*
X19434000Y23682000D02*
X20134000Y23682000D01*
X36934000Y53232000D02*
X36934000Y51818012D01*
X36934000Y51818012D02*
X36934000Y48182000D01*
X54047010Y20749010D02*
X54047010Y12566006D01*
D27*
X54284000Y12329016D02*
X54047010Y12566006D01*
X54284000Y12032000D02*
X54284000Y12329016D01*
X59784000Y12032000D02*
X54284000Y12032000D01*
X60759340Y11056660D02*
X59784000Y12032000D01*
X60759340Y9232900D02*
X60759340Y11056660D01*
D24*
X3184000Y55932000D02*
X4523433Y55932000D01*
X784000Y53532000D02*
X3184000Y55932000D01*
X784000Y29532000D02*
X784000Y53532000D01*
X784000Y29532000D02*
X4466379Y29532000D01*
X784000Y17782000D02*
X784000Y29532000D01*
X52978321Y750990D02*
X17815010Y750990D01*
X17815010Y750990D02*
X784000Y17782000D01*
X54047010Y1819679D02*
X52978321Y750990D01*
X54047010Y12566006D02*
X54047010Y1819679D01*
D28*
X45394088Y16632000D02*
X47934000Y16632000D01*
X43134000Y16632000D02*
X45394088Y16632000D01*
D27*
X72517000Y5080000D02*
X72628000Y5080000D01*
X71789232Y1050990D02*
X68707000Y4133222D01*
X72628000Y5080000D02*
X74117010Y3590990D01*
X74117010Y1923232D02*
X73244768Y1050990D01*
X74117010Y3590990D02*
X74117010Y1923232D01*
X73244768Y1050990D02*
X71789232Y1050990D01*
X68707000Y4133222D02*
X68707000Y10310362D01*
X68707000Y10310362D02*
X67624884Y11392478D01*
X67624884Y11392478D02*
X63954660Y11392478D01*
X59432000Y28575000D02*
X59432000Y27875000D01*
X59432000Y27875000D02*
X62357000Y24950000D01*
X62357000Y19969000D02*
X62357000Y16719000D01*
X62357000Y24950000D02*
X62357000Y19969000D01*
D24*
X38984000Y47032000D02*
X40101288Y47032000D01*
X40101288Y47032000D02*
X40134000Y46999288D01*
X40172649Y44532000D02*
X40734000Y44532000D01*
X40734000Y44532000D02*
X43534000Y41732000D01*
X43534000Y41732000D02*
X43534000Y16782000D01*
X43534000Y16782000D02*
X42084000Y15332000D01*
X42084000Y15332000D02*
X38763743Y15332000D01*
D28*
X62357000Y16719000D02*
X61170000Y15532000D01*
X61170000Y15532000D02*
X56034000Y15532000D01*
D27*
X72406000Y5080000D02*
X72517000Y5080000D01*
X63954660Y9232900D02*
X63954660Y8334350D01*
X63954660Y15121340D02*
X62357000Y16719000D01*
X68326000Y20090000D02*
X68326000Y19890000D01*
D24*
X65155000Y16719000D02*
X68326000Y19890000D01*
X62357000Y16719000D02*
X65155000Y16719000D01*
X59559000Y16719000D02*
X56388000Y19890000D01*
X62357000Y16719000D02*
X59559000Y16719000D01*
X4434000Y42682000D02*
X4434000Y38682000D01*
X6284000Y44532000D02*
X4434000Y42682000D01*
X40134000Y20382000D02*
X40834000Y20382000D01*
X11108460Y44532000D02*
X6284000Y44532000D01*
X10134000Y44532000D02*
X11108460Y44532000D01*
X25134000Y44581731D02*
X25183731Y44532000D01*
X19434000Y44460849D02*
X19434000Y38682000D01*
X19505151Y44532000D02*
X19434000Y44460849D01*
X25183731Y44532000D02*
X19505151Y44532000D01*
X19505151Y44532000D02*
X11108460Y44532000D01*
X34434000Y44274421D02*
X34434000Y38682000D01*
X34176421Y44532000D02*
X34434000Y44274421D01*
X34176421Y44532000D02*
X25183731Y44532000D01*
X34176421Y44532000D02*
X39584000Y44532000D01*
X9184000Y17032000D02*
X10884000Y15332000D01*
X8984000Y17032000D02*
X9184000Y17032000D01*
X38984000Y15552257D02*
X38763743Y15332000D01*
X38984000Y17032000D02*
X38984000Y15552257D01*
X23984000Y15453025D02*
X23862975Y15332000D01*
X23984000Y17032000D02*
X23984000Y15453025D01*
X23862975Y15332000D02*
X38763743Y15332000D01*
X10884000Y15332000D02*
X23862975Y15332000D01*
X35784000Y32032000D02*
X35584000Y32032000D01*
X36734000Y32982000D02*
X35784000Y32032000D01*
X36734000Y37082000D02*
X36734000Y32982000D01*
X35134000Y38682000D02*
X36734000Y37082000D01*
X34434000Y38682000D02*
X35134000Y38682000D01*
X20784000Y32032000D02*
X20584000Y32032000D01*
X21734000Y32982000D02*
X20784000Y32032000D01*
X21734000Y37082000D02*
X21734000Y32982000D01*
X20134000Y38682000D02*
X21734000Y37082000D01*
X19434000Y38682000D02*
X20134000Y38682000D01*
X5134000Y38682000D02*
X4434000Y38682000D01*
X6734000Y37082000D02*
X5134000Y38682000D01*
X6734000Y32982000D02*
X6734000Y37082000D01*
X5784000Y32032000D02*
X6734000Y32982000D01*
X5584000Y32032000D02*
X5784000Y32032000D01*
X38984000Y44532000D02*
X39584000Y44532000D01*
X40172649Y44532000D02*
X40134000Y44570649D01*
X39584000Y44532000D02*
X40172649Y44532000D01*
X40134000Y46999288D02*
X40134000Y50382000D01*
X40134000Y44570649D02*
X40134000Y46999288D01*
X9634000Y20382000D02*
X10134000Y20382000D01*
X8984000Y19732000D02*
X9634000Y20382000D01*
X8984000Y17032000D02*
X8984000Y19732000D01*
X24584000Y20382000D02*
X25134000Y20382000D01*
X23984000Y19782000D02*
X24584000Y20382000D01*
X23984000Y17032000D02*
X23984000Y19782000D01*
X38984000Y19832000D02*
X39534000Y20382000D01*
X39534000Y20382000D02*
X40134000Y20382000D01*
X38984000Y17032000D02*
X38984000Y19832000D01*
D27*
X63954660Y11392478D02*
X63954660Y15121340D01*
X63954660Y9232900D02*
X63954660Y11392478D01*
D24*
X24922012Y47032000D02*
X25134000Y46820012D01*
X23984000Y47032000D02*
X24922012Y47032000D01*
X25134000Y46820012D02*
X25134000Y44581731D01*
X25134000Y50382000D02*
X25134000Y46820012D01*
X10015856Y47032000D02*
X10134000Y47150144D01*
X8984000Y47032000D02*
X10015856Y47032000D01*
X10134000Y47150144D02*
X10134000Y44532000D01*
X10134000Y50382000D02*
X10134000Y47150144D01*
D27*
X64057000Y36068000D02*
X64057000Y39306500D01*
X65282000Y32385000D02*
X65282000Y34843000D01*
X65282000Y34843000D02*
X64057000Y36068000D01*
X65282000Y31115000D02*
X65282000Y32385000D01*
X65282000Y29845000D02*
X65282000Y31115000D01*
X65282000Y28575000D02*
X65282000Y29845000D01*
D25*
X68326000Y23290000D02*
X68326000Y28478480D01*
X68326000Y28478480D02*
X68326000Y55704000D01*
D27*
X65282000Y28575000D02*
X68229480Y28575000D01*
X68229480Y28575000D02*
X68326000Y28478480D01*
X72406000Y2540000D02*
X72517000Y2540000D01*
X70916990Y4029010D02*
X72406000Y2540000D01*
X70916990Y21899010D02*
X70916990Y4029010D01*
X69526000Y23290000D02*
X70916990Y21899010D01*
X68326000Y23290000D02*
X69526000Y23290000D01*
D26*
X68195000Y23159000D02*
X68326000Y23290000D01*
X64642000Y23159000D02*
X68195000Y23159000D01*
D25*
X68326000Y55704000D02*
X68072000Y55958000D01*
X76784000Y53453000D02*
X76907000Y53330000D01*
X77075000Y53453000D02*
X76784000Y53453000D01*
X78277000Y54655000D02*
X77075000Y53453000D01*
X78277000Y56540000D02*
X78277000Y54655000D01*
X69674000Y55958000D02*
X68072000Y55958000D01*
X71135010Y57419010D02*
X69674000Y55958000D01*
X75184000Y56134000D02*
X73898990Y57419010D01*
X75184000Y54864000D02*
X75184000Y56134000D01*
X73898990Y57419010D02*
X71135010Y57419010D01*
X76718000Y53330000D02*
X75184000Y54864000D01*
X76907000Y53330000D02*
X76718000Y53330000D01*
X48534000Y55732000D02*
X46234000Y55732000D01*
X46234000Y55732000D02*
X44184000Y53682000D01*
X44184000Y53682000D02*
X40134000Y53682000D01*
D27*
X48534000Y55732000D02*
X47984000Y56282000D01*
X40234000Y53782000D02*
X40134000Y53682000D01*
D25*
X40284000Y53532000D02*
X40134000Y53682000D01*
X48534000Y55732000D02*
X48484000Y55782000D01*
X49234000Y50132000D02*
X49234000Y46530000D01*
X48534000Y52332000D02*
X48534000Y50832000D01*
X48534000Y50832000D02*
X49234000Y50132000D01*
X80307000Y53330000D02*
X80582000Y53330000D01*
X80582000Y53330000D02*
X83357000Y56105000D01*
X83357000Y56105000D02*
X83357000Y56540000D01*
X49234000Y41332000D02*
X50238000Y41332000D01*
X50238000Y41332000D02*
X52086000Y43180000D01*
X52086000Y43180000D02*
X52197000Y43180000D01*
X49234000Y43230000D02*
X49234000Y41332000D01*
X78277000Y59080000D02*
X71018000Y59080000D01*
X71018000Y59080000D02*
X69546001Y57608001D01*
X69546001Y57608001D02*
X66754807Y57608001D01*
X54866806Y45720000D02*
X53697000Y45720000D01*
X66754807Y57608001D02*
X54866806Y45720000D01*
X53697000Y45720000D02*
X52197000Y45720000D01*
X72517000Y50800000D02*
X81288370Y50800000D01*
X81288370Y50800000D02*
X85897000Y55408630D01*
X85897000Y55408630D02*
X85897000Y56540000D01*
X75946000Y15240000D02*
X72517000Y15240000D01*
X85344000Y5842000D02*
X75946000Y15240000D01*
X73279000Y18542000D02*
X72517000Y17780000D01*
X85344000Y18542000D02*
X73279000Y18542000D01*
X74422000Y20320000D02*
X72517000Y20320000D01*
X85344000Y31242000D02*
X74422000Y20320000D01*
X72628000Y22860000D02*
X72517000Y22860000D01*
X74384000Y24616000D02*
X72628000Y22860000D01*
X74384000Y32982000D02*
X74384000Y24616000D01*
X85344000Y43942000D02*
X74384000Y32982000D01*
D24*
X33734000Y50382000D02*
X34434000Y50382000D01*
X31384000Y50382000D02*
X33734000Y50382000D01*
X28084000Y53682000D02*
X31384000Y50382000D01*
X25134000Y53682000D02*
X28084000Y53682000D01*
X40134000Y38682000D02*
X40834000Y38682000D01*
X40834000Y38682000D02*
X42134001Y37381999D01*
X42134001Y37381999D02*
X42134001Y27032001D01*
X42134001Y27032001D02*
X40134000Y25032000D01*
X40134000Y25032000D02*
X40134000Y23682000D01*
X28684000Y38682000D02*
X25134000Y38682000D01*
X31984000Y35382000D02*
X28684000Y38682000D01*
X34434000Y35382000D02*
X31984000Y35382000D01*
X25134000Y23682000D02*
X27134000Y23682000D01*
X27134000Y23682000D02*
X30434000Y20382000D01*
X33734000Y20382000D02*
X34434000Y20382000D01*
X30434000Y20382000D02*
X33734000Y20382000D01*
X18734000Y50382000D02*
X19434000Y50382000D01*
X16334000Y50382000D02*
X18734000Y50382000D01*
X13034000Y53682000D02*
X16334000Y50382000D01*
X10134000Y53682000D02*
X13034000Y53682000D01*
X13134000Y38682000D02*
X10134000Y38682000D01*
X16434000Y35382000D02*
X13134000Y38682000D01*
X19434000Y35382000D02*
X16434000Y35382000D01*
X10134000Y23682000D02*
X12884000Y23682000D01*
X12884000Y23682000D02*
X16184000Y20382000D01*
X16184000Y20382000D02*
X18734000Y20382000D01*
X18734000Y20382000D02*
X19434000Y20382000D01*
D26*
X3734000Y35382000D02*
X4434000Y35382000D01*
X2284000Y36832000D02*
X3734000Y35382000D01*
X3734000Y50382000D02*
X2284000Y48932000D01*
X2284000Y48932000D02*
X2284000Y36832000D01*
X4434000Y50382000D02*
X3734000Y50382000D01*
D25*
X72628000Y38100000D02*
X72517000Y38100000D01*
X72628000Y48260000D02*
X72517000Y48260000D01*
D27*
X73025000Y52832000D02*
X72517000Y53340000D01*
X72517000Y55880000D02*
X72628000Y55880000D01*
D25*
X48284000Y46530000D02*
X48284000Y45532000D01*
X48284000Y45532000D02*
X47334000Y44582000D01*
X47334000Y44582000D02*
X47334000Y43230000D01*
X47334000Y43230000D02*
X47334000Y41082000D01*
X48284000Y46530000D02*
X48284000Y49032000D01*
X48284000Y49032000D02*
X46284000Y51032000D01*
X46284000Y51032000D02*
X46284000Y53052002D01*
X46284000Y53052002D02*
X47213999Y53982001D01*
X47213999Y53982001D02*
X50188001Y53982001D01*
X50188001Y53982001D02*
X52086000Y55880000D01*
X52086000Y55880000D02*
X52197000Y55880000D01*
D27*
X52197000Y55880000D02*
X52197000Y55556778D01*
D25*
X48284000Y43230000D02*
X48284000Y44259194D01*
X48284000Y44259194D02*
X49154805Y45129999D01*
X49154805Y45129999D02*
X50029001Y45129999D01*
X50029001Y45129999D02*
X50159001Y45259999D01*
X52197000Y53340000D02*
X52086000Y53340000D01*
X52086000Y53340000D02*
X50159001Y51413001D01*
X50159001Y51413001D02*
X50159001Y45259999D01*
X85097001Y59879999D02*
X85897000Y59080000D01*
X84446999Y60530001D02*
X85097001Y59879999D01*
X70544001Y60530001D02*
X84446999Y60530001D01*
X69372000Y59358000D02*
X70544001Y60530001D01*
X68072000Y59358000D02*
X69372000Y59358000D01*
X60452000Y53340000D02*
X52308000Y53340000D01*
X66470000Y59358000D02*
X60452000Y53340000D01*
X68072000Y59358000D02*
X66470000Y59358000D01*
D27*
X60657000Y36068000D02*
X60657000Y34868000D01*
X61032001Y31315001D02*
X60832000Y31115000D01*
X60657000Y34868000D02*
X61032001Y34492999D01*
X61032001Y34492999D02*
X61032001Y31315001D01*
X60832000Y31115000D02*
X59432000Y31115000D01*
X59432000Y31115000D02*
X58032000Y31115000D01*
X58032000Y31115000D02*
X56578500Y29661500D01*
X56578500Y29661500D02*
X56578500Y27130500D01*
X56578500Y27130500D02*
X52308000Y22860000D01*
X52308000Y22860000D02*
X52197000Y22860000D01*
D25*
X52086000Y22860000D02*
X52197000Y22860000D01*
D27*
X60657000Y39306500D02*
X59257000Y39306500D01*
X59257000Y39306500D02*
X58032000Y38081500D01*
X58032000Y38081500D02*
X58032000Y32385000D01*
X52197000Y25400000D02*
X53597000Y25400000D01*
X53597000Y25400000D02*
X55778490Y27581490D01*
X55778490Y30131490D02*
X58032000Y32385000D01*
X55778490Y27581490D02*
X55778490Y30131490D01*
X58032000Y32385000D02*
X59432000Y32385000D01*
D25*
X52308000Y25400000D02*
X52197000Y25400000D01*
M02*
