M48
METRIC,TZ
T1C0.635
T2C1.000
T3C1.016
%
G90
G05
T1
X47934Y16632
X56034Y15532
T2
X78277Y59080
X78277Y56540
X80817Y59080
X80817Y56540
X83357Y59080
X83357Y56540
X85897Y59080
X85897Y56540
T3
X52197Y55880
X52197Y53340
X52197Y50800
X52197Y48260
X52197Y45720
X52197Y43180
X52197Y40640
X52197Y38100
X52197Y35560
X52197Y33020
X52197Y30480
X52197Y27940
X52197Y25400
X52197Y22860
X52197Y20320
X52197Y17780
X52197Y15240
X52197Y12700
X52197Y10160
X52197Y7620
X52197Y5080
X52197Y2540
X72517Y55880
X72517Y53340
X72517Y50800
X72517Y48260
X72517Y45720
X72517Y43180
X72517Y40640
X72517Y38100
X72517Y35560
X72517Y33020
X72517Y30480
X72517Y27940
X72517Y25400
X72517Y22860
X72517Y20320
X72517Y17780
X72517Y15240
X72517Y12700
X72517Y10160
X72517Y7620
X72517Y5080
X72517Y2540
T0
M30
